<svg xmlns="http://www.w3.org/2000/svg" style="display: none;">
  <symbol id="water-icon" viewBox="0 0 24 24">
    <path d="M12 2.69l5.66 5.66a8 8 0 1 1-11.31 0z" fill="none" stroke="currentColor" stroke-width="2" stroke-linecap="round" stroke-linejoin="round"/>
  </symbol>
  
  <symbol id="sleep-icon" viewBox="0 0 24 24">
    <path d="M17 4c0.28 0 0.53 0.11 0.71 0.29c0.18 0.18 0.29 0.43 0.29 0.71v6c0 0.28-0.11 0.53-0.29 0.71c-0.18 0.18-0.43 0.29-0.71 0.29H7c-0.28 0-0.53-0.11-0.71-0.29C6.11 11.53 6 11.28 6 11V5c0-0.28 0.11-0.53 0.29-0.71C6.47 4.11 6.72 4 7 4h10zm-5 16c-3.87 0-7-3.13-7-7c0-0.36 0.03-0.72 0.08-1h13.84c0.05 0.28 0.08 0.64 0.08 1c0 3.87-3.13 7-7 7z" fill="none" stroke="currentColor" stroke-width="2" stroke-linecap="round" stroke-linejoin="round"/>
  </symbol>
  
  <symbol id="energy-icon" viewBox="0 0 24 24">
    <path d="M13 2L3 14h9l-1 8 10-12h-9l1-8z" fill="none" stroke="currentColor" stroke-width="2" stroke-linecap="round" stroke-linejoin="round"/>
  </symbol>
  
  <symbol id="steps-icon" viewBox="0 0 24 24">
    <path d="M19 15.59L17.59 17 14 13.41 14 17 12 17 12 9 14 9 14 12.59 17.59 9 19 10.41 15.41 14 19 15.59" fill="none" stroke="currentColor" stroke-width="2" stroke-linecap="round" stroke-linejoin="round"/>
    <path d="M6 15c1.1 0 2 .9 2 2s-.9 2-2 2-2-.9-2-2 .9-2 2-2zm0-10c1.1 0 2 .9 2 2s-.9 2-2 2-2-.9-2-2 .9-2 2-2zm6 5c1.1 0 2 .9 2 2s-.9 2-2 2-2-.9-2-2 .9-2 2-2z" fill="none" stroke="currentColor" stroke-width="2" stroke-linecap="round" stroke-linejoin="round"/>
  </symbol>
  
  <symbol id="image-icon" viewBox="0 0 24 24">
    <rect x="3" y="3" width="18" height="18" rx="2" ry="2" fill="none" stroke="currentColor" stroke-width="2" stroke-linecap="round" stroke-linejoin="round"/>
    <circle cx="8.5" cy="8.5" r="1.5" fill="currentColor"/>
    <path d="M21 15l-5-5L5 21" fill="none" stroke="currentColor" stroke-width="2" stroke-linecap="round" stroke-linejoin="round"/>
  </symbol>
</svg>